<svg width="421" height="449" viewBox="0 0 421 449" fill="none" xmlns="http://www.w3.org/2000/svg">
<path d="M0.471875 8.8H4.59188L8.91188 23.04L13.1919 8.8H16.8319L21.1119 23.04L25.4319 8.8H29.5919L23.3519 28H19.4719L15.0319 13.68L10.5919 28H6.67188L0.471875 8.8ZM36.3663 5.04C35.6996 5.04 35.1396 4.81333 34.6863 4.36C34.2329 3.90667 34.0063 3.34667 34.0063 2.68C34.0063 2.01333 34.2329 1.45333 34.6863 1C35.1396 0.546666 35.6996 0.319999 36.3663 0.319999C37.0596 0.319999 37.6329 0.546666 38.0863 1C38.5663 1.45333 38.8063 2.01333 38.8063 2.68C38.8063 3.34667 38.5663 3.90667 38.0863 4.36C37.6329 4.81333 37.0596 5.04 36.3663 5.04ZM34.3263 8.8H38.4463V28H34.3263V8.8ZM44.0063 8.8H47.9263V11.56C48.8329 10.4133 49.9396 9.57333 51.2463 9.04C52.5796 8.48 53.9663 8.2 55.4063 8.2C57.9663 8.2 59.8729 8.88 61.1263 10.24C62.3796 11.6 63.0063 13.4267 63.0063 15.72V28H58.9663V16.12C58.9663 13 57.4729 11.44 54.4863 11.44C53.2063 11.44 52.0063 11.7467 50.8863 12.36C49.7929 12.9467 48.8463 13.8533 48.0463 15.08V28H44.0063V8.8ZM67.9906 8.8H71.9106V11.56C72.8173 10.4133 73.924 9.57333 75.2306 9.04C76.564 8.48 77.9506 8.2 79.3906 8.2C81.9506 8.2 83.8573 8.88 85.1106 10.24C86.364 11.6 86.9906 13.4267 86.9906 15.72V28H82.9506V16.12C82.9506 13 81.4573 11.44 78.4706 11.44C77.1906 11.44 75.9906 11.7467 74.8706 12.36C73.7773 12.9467 72.8306 13.8533 72.0306 15.08V28H67.9906V8.8ZM102.535 28.6C98.9883 28.6 96.2017 27.72 94.175 25.96C92.175 24.1733 91.175 21.6667 91.175 18.44C91.175 15.2933 92.0683 12.8 93.855 10.96C95.6683 9.12 98.2417 8.2 101.575 8.2C103.788 8.2 105.668 8.62667 107.215 9.48C108.762 10.3067 109.922 11.4667 110.695 12.96C111.495 14.4267 111.895 16.1067 111.895 18V20H95.015C95.1483 21.8133 95.9083 23.1733 97.295 24.08C98.7083 24.96 100.615 25.4 103.015 25.4C104.242 25.4 105.482 25.2933 106.735 25.08C107.988 24.84 109.095 24.5333 110.055 24.16V27.4C109.202 27.7467 108.068 28.0267 106.655 28.24C105.268 28.48 103.895 28.6 102.535 28.6ZM108.095 17.16C108.042 15.3467 107.442 13.9467 106.295 12.96C105.175 11.9467 103.575 11.44 101.495 11.44C99.4683 11.44 97.895 11.96 96.775 13C95.655 14.04 95.0683 15.4267 95.015 17.16H108.095ZM116.311 8.8H120.231V12.24C121.031 11.0667 122.151 10.2 123.591 9.64C125.058 9.08 126.751 8.8 128.671 8.8V11.96C126.618 11.96 124.858 12.2933 123.391 12.96C121.924 13.6267 120.911 14.68 120.351 16.12V28H116.311V8.8ZM146.292 8.8H150.412L154.732 23.04L159.012 8.8H162.652L166.932 23.04L171.252 8.8H175.412L169.172 28H165.292L160.852 13.68L156.412 28H152.492L146.292 8.8ZM182.187 5.04C181.52 5.04 180.96 4.81333 180.507 4.36C180.053 3.90667 179.827 3.34667 179.827 2.68C179.827 2.01333 180.053 1.45333 180.507 1C180.96 0.546666 181.52 0.319999 182.187 0.319999C182.88 0.319999 183.453 0.546666 183.907 1C184.387 1.45333 184.627 2.01333 184.627 2.68C184.627 3.34667 184.387 3.90667 183.907 4.36C183.453 4.81333 182.88 5.04 182.187 5.04ZM180.147 8.8H184.267V28H180.147V8.8ZM189.827 8.8H193.747V11.56C194.653 10.4133 195.76 9.57333 197.067 9.04C198.4 8.48 199.787 8.2 201.227 8.2C203.787 8.2 205.693 8.88 206.947 10.24C208.2 11.6 208.827 13.4267 208.827 15.72V28H204.787V16.12C204.787 13 203.293 11.44 200.307 11.44C199.027 11.44 197.827 11.7467 196.707 12.36C195.613 12.9467 194.667 13.8533 193.867 15.08V28H189.827V8.8ZM213.811 8.8H217.731V11.56C218.638 10.4133 219.744 9.57333 221.051 9.04C222.384 8.48 223.771 8.2 225.211 8.2C227.771 8.2 229.678 8.88 230.931 10.24C232.184 11.6 232.811 13.4267 232.811 15.72V28H228.771V16.12C228.771 13 227.278 11.44 224.291 11.44C223.011 11.44 221.811 11.7467 220.691 12.36C219.598 12.9467 218.651 13.8533 217.851 15.08V28H213.811V8.8ZM248.355 28.6C244.809 28.6 242.022 27.72 239.995 25.96C237.995 24.1733 236.995 21.6667 236.995 18.44C236.995 15.2933 237.889 12.8 239.675 10.96C241.489 9.12 244.062 8.2 247.395 8.2C249.609 8.2 251.489 8.62667 253.035 9.48C254.582 10.3067 255.742 11.4667 256.515 12.96C257.315 14.4267 257.715 16.1067 257.715 18V20H240.835C240.969 21.8133 241.729 23.1733 243.115 24.08C244.529 24.96 246.435 25.4 248.835 25.4C250.062 25.4 251.302 25.2933 252.555 25.08C253.809 24.84 254.915 24.5333 255.875 24.16V27.4C255.022 27.7467 253.889 28.0267 252.475 28.24C251.089 28.48 249.715 28.6 248.355 28.6ZM253.915 17.16C253.862 15.3467 253.262 13.9467 252.115 12.96C250.995 11.9467 249.395 11.44 247.315 11.44C245.289 11.44 243.715 11.96 242.595 13C241.475 14.04 240.889 15.4267 240.835 17.16H253.915ZM262.131 8.8H266.051V12.24C266.851 11.0667 267.971 10.2 269.411 9.64C270.878 9.08 272.571 8.8 274.491 8.8V11.96C272.438 11.96 270.678 12.2933 269.211 12.96C267.745 13.6267 266.731 14.68 266.171 16.12V28H262.131V8.8ZM292.113 8.8H296.233L300.553 23.04L304.833 8.8H308.473L312.753 23.04L317.073 8.8H321.233L314.993 28H311.113L306.673 13.68L302.233 28H298.313L292.113 8.8ZM328.007 5.04C327.34 5.04 326.78 4.81333 326.327 4.36C325.874 3.90667 325.647 3.34667 325.647 2.68C325.647 2.01333 325.874 1.45333 326.327 1C326.78 0.546666 327.34 0.319999 328.007 0.319999C328.7 0.319999 329.274 0.546666 329.727 1C330.207 1.45333 330.447 2.01333 330.447 2.68C330.447 3.34667 330.207 3.90667 329.727 4.36C329.274 4.81333 328.7 5.04 328.007 5.04ZM325.967 8.8H330.087V28H325.967V8.8ZM335.647 8.8H339.567V11.56C340.474 10.4133 341.58 9.57333 342.887 9.04C344.22 8.48 345.607 8.2 347.047 8.2C349.607 8.2 351.514 8.88 352.767 10.24C354.02 11.6 354.647 13.4267 354.647 15.72V28H350.607V16.12C350.607 13 349.114 11.44 346.127 11.44C344.847 11.44 343.647 11.7467 342.527 12.36C341.434 12.9467 340.487 13.8533 339.687 15.08V28H335.647V8.8ZM359.631 8.8H363.551V11.56C364.458 10.4133 365.565 9.57333 366.871 9.04C368.205 8.48 369.591 8.2 371.031 8.2C373.591 8.2 375.498 8.88 376.751 10.24C378.005 11.6 378.631 13.4267 378.631 15.72V28H374.591V16.12C374.591 13 373.098 11.44 370.111 11.44C368.831 11.44 367.631 11.7467 366.511 12.36C365.418 12.9467 364.471 13.8533 363.671 15.08V28H359.631V8.8ZM394.176 28.6C390.629 28.6 387.842 27.72 385.816 25.96C383.816 24.1733 382.816 21.6667 382.816 18.44C382.816 15.2933 383.709 12.8 385.496 10.96C387.309 9.12 389.882 8.2 393.216 8.2C395.429 8.2 397.309 8.62667 398.856 9.48C400.402 10.3067 401.562 11.4667 402.336 12.96C403.136 14.4267 403.536 16.1067 403.536 18V20H386.656C386.789 21.8133 387.549 23.1733 388.936 24.08C390.349 24.96 392.256 25.4 394.656 25.4C395.882 25.4 397.122 25.2933 398.376 25.08C399.629 24.84 400.736 24.5333 401.696 24.16V27.4C400.842 27.7467 399.709 28.0267 398.296 28.24C396.909 28.48 395.536 28.6 394.176 28.6ZM399.736 17.16C399.682 15.3467 399.082 13.9467 397.936 12.96C396.816 11.9467 395.216 11.44 393.136 11.44C391.109 11.44 389.536 11.96 388.416 13C387.296 14.04 386.709 15.4267 386.656 17.16H399.736ZM407.952 8.8H411.872V12.24C412.672 11.0667 413.792 10.2 415.232 9.64C416.698 9.08 418.392 8.8 420.312 8.8V11.96C418.258 11.96 416.498 12.2933 415.032 12.96C413.565 13.6267 412.552 14.68 411.992 16.12V28H407.952V8.8ZM0.471875 68.8H4.59188L8.91188 83.04L13.1919 68.8H16.8319L21.1119 83.04L25.4319 68.8H29.5919L23.3519 88H19.4719L15.0319 73.68L10.5919 88H6.67188L0.471875 68.8ZM36.3663 65.04C35.6996 65.04 35.1396 64.8133 34.6863 64.36C34.2329 63.9067 34.0063 63.3467 34.0063 62.68C34.0063 62.0133 34.2329 61.4533 34.6863 61C35.1396 60.5467 35.6996 60.32 36.3663 60.32C37.0596 60.32 37.6329 60.5467 38.0863 61C38.5663 61.4533 38.8063 62.0133 38.8063 62.68C38.8063 63.3467 38.5663 63.9067 38.0863 64.36C37.6329 64.8133 37.0596 65.04 36.3663 65.04ZM34.3263 68.8H38.4463V88H34.3263V68.8ZM44.0063 68.8H47.9263V71.56C48.8329 70.4133 49.9396 69.5733 51.2463 69.04C52.5796 68.48 53.9663 68.2 55.4063 68.2C57.9663 68.2 59.8729 68.88 61.1263 70.24C62.3796 71.6 63.0063 73.4267 63.0063 75.72V88H58.9663V76.12C58.9663 73 57.4729 71.44 54.4863 71.44C53.2063 71.44 52.0063 71.7467 50.8863 72.36C49.7929 72.9467 48.8463 73.8533 48.0463 75.08V88H44.0063V68.8ZM67.9906 68.8H71.9106V71.56C72.8173 70.4133 73.924 69.5733 75.2306 69.04C76.564 68.48 77.9506 68.2 79.3906 68.2C81.9506 68.2 83.8573 68.88 85.1106 70.24C86.364 71.6 86.9906 73.4267 86.9906 75.72V88H82.9506V76.12C82.9506 73 81.4573 71.44 78.4706 71.44C77.1906 71.44 75.9906 71.7467 74.8706 72.36C73.7773 72.9467 72.8306 73.8533 72.0306 75.08V88H67.9906V68.8ZM102.535 88.6C98.9883 88.6 96.2017 87.72 94.175 85.96C92.175 84.1733 91.175 81.6667 91.175 78.44C91.175 75.2933 92.0683 72.8 93.855 70.96C95.6683 69.12 98.2417 68.2 101.575 68.2C103.788 68.2 105.668 68.6267 107.215 69.48C108.762 70.3067 109.922 71.4667 110.695 72.96C111.495 74.4267 111.895 76.1067 111.895 78V80H95.015C95.1483 81.8133 95.9083 83.1733 97.295 84.08C98.7083 84.96 100.615 85.4 103.015 85.4C104.242 85.4 105.482 85.2933 106.735 85.08C107.988 84.84 109.095 84.5333 110.055 84.16V87.4C109.202 87.7467 108.068 88.0267 106.655 88.24C105.268 88.48 103.895 88.6 102.535 88.6ZM108.095 77.16C108.042 75.3467 107.442 73.9467 106.295 72.96C105.175 71.9467 103.575 71.44 101.495 71.44C99.4683 71.44 97.895 71.96 96.775 73C95.655 74.04 95.0683 75.4267 95.015 77.16H108.095ZM116.311 68.8H120.231V72.24C121.031 71.0667 122.151 70.2 123.591 69.64C125.058 69.08 126.751 68.8 128.671 68.8V71.96C126.618 71.96 124.858 72.2933 123.391 72.96C121.924 73.6267 120.911 74.68 120.351 76.12V88H116.311V68.8ZM146.292 68.8H150.412L154.732 83.04L159.012 68.8H162.652L166.932 83.04L171.252 68.8H175.412L169.172 88H165.292L160.852 73.68L156.412 88H152.492L146.292 68.8ZM182.187 65.04C181.52 65.04 180.96 64.8133 180.507 64.36C180.053 63.9067 179.827 63.3467 179.827 62.68C179.827 62.0133 180.053 61.4533 180.507 61C180.96 60.5467 181.52 60.32 182.187 60.32C182.88 60.32 183.453 60.5467 183.907 61C184.387 61.4533 184.627 62.0133 184.627 62.68C184.627 63.3467 184.387 63.9067 183.907 64.36C183.453 64.8133 182.88 65.04 182.187 65.04ZM180.147 68.8H184.267V88H180.147V68.8ZM189.827 68.8H193.747V71.56C194.653 70.4133 195.76 69.5733 197.067 69.04C198.4 68.48 199.787 68.2 201.227 68.2C203.787 68.2 205.693 68.88 206.947 70.24C208.2 71.6 208.827 73.4267 208.827 75.72V88H204.787V76.12C204.787 73 203.293 71.44 200.307 71.44C199.027 71.44 197.827 71.7467 196.707 72.36C195.613 72.9467 194.667 73.8533 193.867 75.08V88H189.827V68.8ZM213.811 68.8H217.731V71.56C218.638 70.4133 219.744 69.5733 221.051 69.04C222.384 68.48 223.771 68.2 225.211 68.2C227.771 68.2 229.678 68.88 230.931 70.24C232.184 71.6 232.811 73.4267 232.811 75.72V88H228.771V76.12C228.771 73 227.278 71.44 224.291 71.44C223.011 71.44 221.811 71.7467 220.691 72.36C219.598 72.9467 218.651 73.8533 217.851 75.08V88H213.811V68.8ZM248.355 88.6C244.809 88.6 242.022 87.72 239.995 85.96C237.995 84.1733 236.995 81.6667 236.995 78.44C236.995 75.2933 237.889 72.8 239.675 70.96C241.489 69.12 244.062 68.2 247.395 68.2C249.609 68.2 251.489 68.6267 253.035 69.48C254.582 70.3067 255.742 71.4667 256.515 72.96C257.315 74.4267 257.715 76.1067 257.715 78V80H240.835C240.969 81.8133 241.729 83.1733 243.115 84.08C244.529 84.96 246.435 85.4 248.835 85.4C250.062 85.4 251.302 85.2933 252.555 85.08C253.809 84.84 254.915 84.5333 255.875 84.16V87.4C255.022 87.7467 253.889 88.0267 252.475 88.24C251.089 88.48 249.715 88.6 248.355 88.6ZM253.915 77.16C253.862 75.3467 253.262 73.9467 252.115 72.96C250.995 71.9467 249.395 71.44 247.315 71.44C245.289 71.44 243.715 71.96 242.595 73C241.475 74.04 240.889 75.4267 240.835 77.16H253.915ZM262.131 68.8H266.051V72.24C266.851 71.0667 267.971 70.2 269.411 69.64C270.878 69.08 272.571 68.8 274.491 68.8V71.96C272.438 71.96 270.678 72.2933 269.211 72.96C267.745 73.6267 266.731 74.68 266.171 76.12V88H262.131V68.8ZM292.113 68.8H296.233L300.553 83.04L304.833 68.8H308.473L312.753 83.04L317.073 68.8H321.233L314.993 88H311.113L306.673 73.68L302.233 88H298.313L292.113 68.8ZM328.007 65.04C327.34 65.04 326.78 64.8133 326.327 64.36C325.874 63.9067 325.647 63.3467 325.647 62.68C325.647 62.0133 325.874 61.4533 326.327 61C326.78 60.5467 327.34 60.32 328.007 60.32C328.7 60.32 329.274 60.5467 329.727 61C330.207 61.4533 330.447 62.0133 330.447 62.68C330.447 63.3467 330.207 63.9067 329.727 64.36C329.274 64.8133 328.7 65.04 328.007 65.04ZM325.967 68.8H330.087V88H325.967V68.8ZM335.647 68.8H339.567V71.56C340.474 70.4133 341.58 69.5733 342.887 69.04C344.22 68.48 345.607 68.2 347.047 68.2C349.607 68.2 351.514 68.88 352.767 70.24C354.02 71.6 354.647 73.4267 354.647 75.72V88H350.607V76.12C350.607 73 349.114 71.44 346.127 71.44C344.847 71.44 343.647 71.7467 342.527 72.36C341.434 72.9467 340.487 73.8533 339.687 75.08V88H335.647V68.8ZM359.631 68.8H363.551V71.56C364.458 70.4133 365.565 69.5733 366.871 69.04C368.205 68.48 369.591 68.2 371.031 68.2C373.591 68.2 375.498 68.88 376.751 70.24C378.005 71.6 378.631 73.4267 378.631 75.72V88H374.591V76.12C374.591 73 373.098 71.44 370.111 71.44C368.831 71.44 367.631 71.7467 366.511 72.36C365.418 72.9467 364.471 73.8533 363.671 75.08V88H359.631V68.8ZM394.176 88.6C390.629 88.6 387.842 87.72 385.816 85.96C383.816 84.1733 382.816 81.6667 382.816 78.44C382.816 75.2933 383.709 72.8 385.496 70.96C387.309 69.12 389.882 68.2 393.216 68.2C395.429 68.2 397.309 68.6267 398.856 69.48C400.402 70.3067 401.562 71.4667 402.336 72.96C403.136 74.4267 403.536 76.1067 403.536 78V80H386.656C386.789 81.8133 387.549 83.1733 388.936 84.08C390.349 84.96 392.256 85.4 394.656 85.4C395.882 85.4 397.122 85.2933 398.376 85.08C399.629 84.84 400.736 84.5333 401.696 84.16V87.4C400.842 87.7467 399.709 88.0267 398.296 88.24C396.909 88.48 395.536 88.6 394.176 88.6ZM399.736 77.16C399.682 75.3467 399.082 73.9467 397.936 72.96C396.816 71.9467 395.216 71.44 393.136 71.44C391.109 71.44 389.536 71.96 388.416 73C387.296 74.04 386.709 75.4267 386.656 77.16H399.736ZM407.952 68.8H411.872V72.24C412.672 71.0667 413.792 70.2 415.232 69.64C416.698 69.08 418.392 68.8 420.312 68.8V71.96C418.258 71.96 416.498 72.2933 415.032 72.96C413.565 73.6267 412.552 74.68 411.992 76.12V88H407.952V68.8ZM0.471875 128.8H4.59188L8.91188 143.04L13.1919 128.8H16.8319L21.1119 143.04L25.4319 128.8H29.5919L23.3519 148H19.4719L15.0319 133.68L10.5919 148H6.67188L0.471875 128.8ZM36.3663 125.04C35.6996 125.04 35.1396 124.813 34.6863 124.36C34.2329 123.907 34.0063 123.347 34.0063 122.68C34.0063 122.013 34.2329 121.453 34.6863 121C35.1396 120.547 35.6996 120.32 36.3663 120.32C37.0596 120.32 37.6329 120.547 38.0863 121C38.5663 121.453 38.8063 122.013 38.8063 122.68C38.8063 123.347 38.5663 123.907 38.0863 124.36C37.6329 124.813 37.0596 125.04 36.3663 125.04ZM34.3263 128.8H38.4463V148H34.3263V128.8ZM44.0063 128.8H47.9263V131.56C48.8329 130.413 49.9396 129.573 51.2463 129.04C52.5796 128.48 53.9663 128.2 55.4063 128.2C57.9663 128.2 59.8729 128.88 61.1263 130.24C62.3796 131.6 63.0063 133.427 63.0063 135.72V148H58.9663V136.12C58.9663 133 57.4729 131.44 54.4863 131.44C53.2063 131.44 52.0063 131.747 50.8863 132.36C49.7929 132.947 48.8463 133.853 48.0463 135.08V148H44.0063V128.8ZM67.9906 128.8H71.9106V131.56C72.8173 130.413 73.924 129.573 75.2306 129.04C76.564 128.48 77.9506 128.2 79.3906 128.2C81.9506 128.2 83.8573 128.88 85.1106 130.24C86.364 131.6 86.9906 133.427 86.9906 135.72V148H82.9506V136.12C82.9506 133 81.4573 131.44 78.4706 131.44C77.1906 131.44 75.9906 131.747 74.8706 132.36C73.7773 132.947 72.8306 133.853 72.0306 135.08V148H67.9906V128.8ZM102.535 148.6C98.9883 148.6 96.2017 147.72 94.175 145.96C92.175 144.173 91.175 141.667 91.175 138.44C91.175 135.293 92.0683 132.8 93.855 130.96C95.6683 129.12 98.2417 128.2 101.575 128.2C103.788 128.2 105.668 128.627 107.215 129.48C108.762 130.307 109.922 131.467 110.695 132.96C111.495 134.427 111.895 136.107 111.895 138V140H95.015C95.1483 141.813 95.9083 143.173 97.295 144.08C98.7083 144.96 100.615 145.4 103.015 145.4C104.242 145.4 105.482 145.293 106.735 145.08C107.988 144.84 109.095 144.533 110.055 144.16V147.4C109.202 147.747 108.068 148.027 106.655 148.24C105.268 148.48 103.895 148.6 102.535 148.6ZM108.095 137.16C108.042 135.347 107.442 133.947 106.295 132.96C105.175 131.947 103.575 131.44 101.495 131.44C99.4683 131.44 97.895 131.96 96.775 133C95.655 134.04 95.0683 135.427 95.015 137.16H108.095ZM116.311 128.8H120.231V132.24C121.031 131.067 122.151 130.2 123.591 129.64C125.058 129.08 126.751 128.8 128.671 128.8V131.96C126.618 131.96 124.858 132.293 123.391 132.96C121.924 133.627 120.911 134.68 120.351 136.12V148H116.311V128.8ZM146.292 128.8H150.412L154.732 143.04L159.012 128.8H162.652L166.932 143.04L171.252 128.8H175.412L169.172 148H165.292L160.852 133.68L156.412 148H152.492L146.292 128.8ZM182.187 125.04C181.52 125.04 180.96 124.813 180.507 124.36C180.053 123.907 179.827 123.347 179.827 122.68C179.827 122.013 180.053 121.453 180.507 121C180.96 120.547 181.52 120.32 182.187 120.32C182.88 120.32 183.453 120.547 183.907 121C184.387 121.453 184.627 122.013 184.627 122.68C184.627 123.347 184.387 123.907 183.907 124.36C183.453 124.813 182.88 125.04 182.187 125.04ZM180.147 128.8H184.267V148H180.147V128.8ZM189.827 128.8H193.747V131.56C194.653 130.413 195.76 129.573 197.067 129.04C198.4 128.48 199.787 128.2 201.227 128.2C203.787 128.2 205.693 128.88 206.947 130.24C208.2 131.6 208.827 133.427 208.827 135.72V148H204.787V136.12C204.787 133 203.293 131.44 200.307 131.44C199.027 131.44 197.827 131.747 196.707 132.36C195.613 132.947 194.667 133.853 193.867 135.08V148H189.827V128.8ZM213.811 128.8H217.731V131.56C218.638 130.413 219.744 129.573 221.051 129.04C222.384 128.48 223.771 128.2 225.211 128.2C227.771 128.2 229.678 128.88 230.931 130.24C232.184 131.6 232.811 133.427 232.811 135.72V148H228.771V136.12C228.771 133 227.278 131.44 224.291 131.44C223.011 131.44 221.811 131.747 220.691 132.36C219.598 132.947 218.651 133.853 217.851 135.08V148H213.811V128.8ZM248.355 148.6C244.809 148.6 242.022 147.72 239.995 145.96C237.995 144.173 236.995 141.667 236.995 138.44C236.995 135.293 237.889 132.8 239.675 130.96C241.489 129.12 244.062 128.2 247.395 128.2C249.609 128.2 251.489 128.627 253.035 129.48C254.582 130.307 255.742 131.467 256.515 132.96C257.315 134.427 257.715 136.107 257.715 138V140H240.835C240.969 141.813 241.729 143.173 243.115 144.08C244.529 144.96 246.435 145.4 248.835 145.4C250.062 145.4 251.302 145.293 252.555 145.08C253.809 144.84 254.915 144.533 255.875 144.16V147.4C255.022 147.747 253.889 148.027 252.475 148.24C251.089 148.48 249.715 148.6 248.355 148.6ZM253.915 137.16C253.862 135.347 253.262 133.947 252.115 132.96C250.995 131.947 249.395 131.44 247.315 131.44C245.289 131.44 243.715 131.96 242.595 133C241.475 134.04 240.889 135.427 240.835 137.16H253.915ZM262.131 128.8H266.051V132.24C266.851 131.067 267.971 130.2 269.411 129.64C270.878 129.08 272.571 128.8 274.491 128.8V131.96C272.438 131.96 270.678 132.293 269.211 132.96C267.745 133.627 266.731 134.68 266.171 136.12V148H262.131V128.8ZM292.113 128.8H296.233L300.553 143.04L304.833 128.8H308.473L312.753 143.04L317.073 128.8H321.233L314.993 148H311.113L306.673 133.68L302.233 148H298.313L292.113 128.8ZM328.007 125.04C327.34 125.04 326.78 124.813 326.327 124.36C325.874 123.907 325.647 123.347 325.647 122.68C325.647 122.013 325.874 121.453 326.327 121C326.78 120.547 327.34 120.32 328.007 120.32C328.7 120.32 329.274 120.547 329.727 121C330.207 121.453 330.447 122.013 330.447 122.68C330.447 123.347 330.207 123.907 329.727 124.36C329.274 124.813 328.7 125.04 328.007 125.04ZM325.967 128.8H330.087V148H325.967V128.8ZM335.647 128.8H339.567V131.56C340.474 130.413 341.58 129.573 342.887 129.04C344.22 128.48 345.607 128.2 347.047 128.2C349.607 128.2 351.514 128.88 352.767 130.24C354.02 131.6 354.647 133.427 354.647 135.72V148H350.607V136.12C350.607 133 349.114 131.44 346.127 131.44C344.847 131.44 343.647 131.747 342.527 132.36C341.434 132.947 340.487 133.853 339.687 135.08V148H335.647V128.8ZM359.631 128.8H363.551V131.56C364.458 130.413 365.565 129.573 366.871 129.04C368.205 128.48 369.591 128.2 371.031 128.2C373.591 128.2 375.498 128.88 376.751 130.24C378.005 131.6 378.631 133.427 378.631 135.72V148H374.591V136.12C374.591 133 373.098 131.44 370.111 131.44C368.831 131.44 367.631 131.747 366.511 132.36C365.418 132.947 364.471 133.853 363.671 135.08V148H359.631V128.8ZM394.176 148.6C390.629 148.6 387.842 147.72 385.816 145.96C383.816 144.173 382.816 141.667 382.816 138.44C382.816 135.293 383.709 132.8 385.496 130.96C387.309 129.12 389.882 128.2 393.216 128.2C395.429 128.2 397.309 128.627 398.856 129.48C400.402 130.307 401.562 131.467 402.336 132.96C403.136 134.427 403.536 136.107 403.536 138V140H386.656C386.789 141.813 387.549 143.173 388.936 144.08C390.349 144.96 392.256 145.4 394.656 145.4C395.882 145.4 397.122 145.293 398.376 145.08C399.629 144.84 400.736 144.533 401.696 144.16V147.4C400.842 147.747 399.709 148.027 398.296 148.24C396.909 148.48 395.536 148.6 394.176 148.6ZM399.736 137.16C399.682 135.347 399.082 133.947 397.936 132.96C396.816 131.947 395.216 131.44 393.136 131.44C391.109 131.44 389.536 131.96 388.416 133C387.296 134.04 386.709 135.427 386.656 137.16H399.736ZM407.952 128.8H411.872V132.24C412.672 131.067 413.792 130.2 415.232 129.64C416.698 129.08 418.392 128.8 420.312 128.8V131.96C418.258 131.96 416.498 132.293 415.032 132.96C413.565 133.627 412.552 134.68 411.992 136.12V148H407.952V128.8ZM0.471875 188.8H4.59188L8.91188 203.04L13.1919 188.8H16.8319L21.1119 203.04L25.4319 188.8H29.5919L23.3519 208H19.4719L15.0319 193.68L10.5919 208H6.67188L0.471875 188.8ZM36.3663 185.04C35.6996 185.04 35.1396 184.813 34.6863 184.36C34.2329 183.907 34.0063 183.347 34.0063 182.68C34.0063 182.013 34.2329 181.453 34.6863 181C35.1396 180.547 35.6996 180.32 36.3663 180.32C37.0596 180.32 37.6329 180.547 38.0863 181C38.5663 181.453 38.8063 182.013 38.8063 182.68C38.8063 183.347 38.5663 183.907 38.0863 184.36C37.6329 184.813 37.0596 185.04 36.3663 185.04ZM34.3263 188.8H38.4463V208H34.3263V188.8ZM44.0063 188.8H47.9263V191.56C48.8329 190.413 49.9396 189.573 51.2463 189.04C52.5796 188.48 53.9663 188.2 55.4063 188.2C57.9663 188.2 59.8729 188.88 61.1263 190.24C62.3796 191.6 63.0063 193.427 63.0063 195.72V208H58.9663V196.12C58.9663 193 57.4729 191.44 54.4863 191.44C53.2063 191.44 52.0063 191.747 50.8863 192.36C49.7929 192.947 48.8463 193.853 48.0463 195.08V208H44.0063V188.8ZM67.9906 188.8H71.9106V191.56C72.8173 190.413 73.924 189.573 75.2306 189.04C76.564 188.48 77.9506 188.2 79.3906 188.2C81.9506 188.2 83.8573 188.88 85.1106 190.24C86.364 191.6 86.9906 193.427 86.9906 195.72V208H82.9506V196.12C82.9506 193 81.4573 191.44 78.4706 191.44C77.1906 191.44 75.9906 191.747 74.8706 192.36C73.7773 192.947 72.8306 193.853 72.0306 195.08V208H67.9906V188.8ZM102.535 208.6C98.9883 208.6 96.2017 207.72 94.175 205.96C92.175 204.173 91.175 201.667 91.175 198.44C91.175 195.293 92.0683 192.8 93.855 190.96C95.6683 189.12 98.2417 188.2 101.575 188.2C103.788 188.2 105.668 188.627 107.215 189.48C108.762 190.307 109.922 191.467 110.695 192.96C111.495 194.427 111.895 196.107 111.895 198V200H95.015C95.1483 201.813 95.9083 203.173 97.295 204.08C98.7083 204.96 100.615 205.4 103.015 205.4C104.242 205.4 105.482 205.293 106.735 205.08C107.988 204.84 109.095 204.533 110.055 204.16V207.4C109.202 207.747 108.068 208.027 106.655 208.24C105.268 208.48 103.895 208.6 102.535 208.6ZM108.095 197.16C108.042 195.347 107.442 193.947 106.295 192.96C105.175 191.947 103.575 191.44 101.495 191.44C99.4683 191.44 97.895 191.96 96.775 193C95.655 194.04 95.0683 195.427 95.015 197.16H108.095ZM116.311 188.8H120.231V192.24C121.031 191.067 122.151 190.2 123.591 189.64C125.058 189.08 126.751 188.8 128.671 188.8V191.96C126.618 191.96 124.858 192.293 123.391 192.96C121.924 193.627 120.911 194.68 120.351 196.12V208H116.311V188.8ZM146.292 188.8H150.412L154.732 203.04L159.012 188.8H162.652L166.932 203.04L171.252 188.8H175.412L169.172 208H165.292L160.852 193.68L156.412 208H152.492L146.292 188.8ZM182.187 185.04C181.52 185.04 180.96 184.813 180.507 184.36C180.053 183.907 179.827 183.347 179.827 182.68C179.827 182.013 180.053 181.453 180.507 181C180.96 180.547 181.52 180.32 182.187 180.32C182.88 180.32 183.453 180.547 183.907 181C184.387 181.453 184.627 182.013 184.627 182.68C184.627 183.347 184.387 183.907 183.907 184.36C183.453 184.813 182.88 185.04 182.187 185.04ZM180.147 188.8H184.267V208H180.147V188.8ZM189.827 188.8H193.747V191.56C194.653 190.413 195.76 189.573 197.067 189.04C198.4 188.48 199.787 188.2 201.227 188.2C203.787 188.2 205.693 188.88 206.947 190.24C208.2 191.6 208.827 193.427 208.827 195.72V208H204.787V196.12C204.787 193 203.293 191.44 200.307 191.44C199.027 191.44 197.827 191.747 196.707 192.36C195.613 192.947 194.667 193.853 193.867 195.08V208H189.827V188.8ZM213.811 188.8H217.731V191.56C218.638 190.413 219.744 189.573 221.051 189.04C222.384 188.48 223.771 188.2 225.211 188.2C227.771 188.2 229.678 188.88 230.931 190.24C232.184 191.6 232.811 193.427 232.811 195.72V208H228.771V196.12C228.771 193 227.278 191.44 224.291 191.44C223.011 191.44 221.811 191.747 220.691 192.36C219.598 192.947 218.651 193.853 217.851 195.08V208H213.811V188.8ZM248.355 208.6C244.809 208.6 242.022 207.72 239.995 205.96C237.995 204.173 236.995 201.667 236.995 198.44C236.995 195.293 237.889 192.8 239.675 190.96C241.489 189.12 244.062 188.2 247.395 188.2C249.609 188.2 251.489 188.627 253.035 189.48C254.582 190.307 255.742 191.467 256.515 192.96C257.315 194.427 257.715 196.107 257.715 198V200H240.835C240.969 201.813 241.729 203.173 243.115 204.08C244.529 204.96 246.435 205.4 248.835 205.4C250.062 205.4 251.302 205.293 252.555 205.08C253.809 204.84 254.915 204.533 255.875 204.16V207.4C255.022 207.747 253.889 208.027 252.475 208.24C251.089 208.48 249.715 208.6 248.355 208.6ZM253.915 197.16C253.862 195.347 253.262 193.947 252.115 192.96C250.995 191.947 249.395 191.44 247.315 191.44C245.289 191.44 243.715 191.96 242.595 193C241.475 194.04 240.889 195.427 240.835 197.16H253.915ZM262.131 188.8H266.051V192.24C266.851 191.067 267.971 190.2 269.411 189.64C270.878 189.08 272.571 188.8 274.491 188.8V191.96C272.438 191.96 270.678 192.293 269.211 192.96C267.745 193.627 266.731 194.68 266.171 196.12V208H262.131V188.8ZM292.113 188.8H296.233L300.553 203.04L304.833 188.8H308.473L312.753 203.04L317.073 188.8H321.233L314.993 208H311.113L306.673 193.68L302.233 208H298.313L292.113 188.8ZM328.007 185.04C327.34 185.04 326.78 184.813 326.327 184.36C325.874 183.907 325.647 183.347 325.647 182.68C325.647 182.013 325.874 181.453 326.327 181C326.78 180.547 327.34 180.32 328.007 180.32C328.7 180.32 329.274 180.547 329.727 181C330.207 181.453 330.447 182.013 330.447 182.68C330.447 183.347 330.207 183.907 329.727 184.36C329.274 184.813 328.7 185.04 328.007 185.04ZM325.967 188.8H330.087V208H325.967V188.8ZM335.647 188.8H339.567V191.56C340.474 190.413 341.58 189.573 342.887 189.04C344.22 188.48 345.607 188.2 347.047 188.2C349.607 188.2 351.514 188.88 352.767 190.24C354.02 191.6 354.647 193.427 354.647 195.72V208H350.607V196.12C350.607 193 349.114 191.44 346.127 191.44C344.847 191.44 343.647 191.747 342.527 192.36C341.434 192.947 340.487 193.853 339.687 195.08V208H335.647V188.8ZM359.631 188.8H363.551V191.56C364.458 190.413 365.565 189.573 366.871 189.04C368.205 188.48 369.591 188.2 371.031 188.2C373.591 188.2 375.498 188.88 376.751 190.24C378.005 191.6 378.631 193.427 378.631 195.72V208H374.591V196.12C374.591 193 373.098 191.44 370.111 191.44C368.831 191.44 367.631 191.747 366.511 192.36C365.418 192.947 364.471 193.853 363.671 195.08V208H359.631V188.8ZM394.176 208.6C390.629 208.6 387.842 207.72 385.816 205.96C383.816 204.173 382.816 201.667 382.816 198.44C382.816 195.293 383.709 192.8 385.496 190.96C387.309 189.12 389.882 188.2 393.216 188.2C395.429 188.2 397.309 188.627 398.856 189.48C400.402 190.307 401.562 191.467 402.336 192.96C403.136 194.427 403.536 196.107 403.536 198V200H386.656C386.789 201.813 387.549 203.173 388.936 204.08C390.349 204.96 392.256 205.4 394.656 205.4C395.882 205.4 397.122 205.293 398.376 205.08C399.629 204.84 400.736 204.533 401.696 204.16V207.4C400.842 207.747 399.709 208.027 398.296 208.24C396.909 208.48 395.536 208.6 394.176 208.6ZM399.736 197.16C399.682 195.347 399.082 193.947 397.936 192.96C396.816 191.947 395.216 191.44 393.136 191.44C391.109 191.44 389.536 191.96 388.416 193C387.296 194.04 386.709 195.427 386.656 197.16H399.736ZM407.952 188.8H411.872V192.24C412.672 191.067 413.792 190.2 415.232 189.64C416.698 189.08 418.392 188.8 420.312 188.8V191.96C418.258 191.96 416.498 192.293 415.032 192.96C413.565 193.627 412.552 194.68 411.992 196.12V208H407.952V188.8ZM0.471875 248.8H4.59188L8.91188 263.04L13.1919 248.8H16.8319L21.1119 263.04L25.4319 248.8H29.5919L23.3519 268H19.4719L15.0319 253.68L10.5919 268H6.67188L0.471875 248.8ZM36.3663 245.04C35.6996 245.04 35.1396 244.813 34.6863 244.36C34.2329 243.907 34.0063 243.347 34.0063 242.68C34.0063 242.013 34.2329 241.453 34.6863 241C35.1396 240.547 35.6996 240.32 36.3663 240.32C37.0596 240.32 37.6329 240.547 38.0863 241C38.5663 241.453 38.8063 242.013 38.8063 242.68C38.8063 243.347 38.5663 243.907 38.0863 244.36C37.6329 244.813 37.0596 245.04 36.3663 245.04ZM34.3263 248.8H38.4463V268H34.3263V248.8ZM44.0063 248.8H47.9263V251.56C48.8329 250.413 49.9396 249.573 51.2463 249.04C52.5796 248.48 53.9663 248.2 55.4063 248.2C57.9663 248.2 59.8729 248.88 61.1263 250.24C62.3796 251.6 63.0063 253.427 63.0063 255.72V268H58.9663V256.12C58.9663 253 57.4729 251.44 54.4863 251.44C53.2063 251.44 52.0063 251.747 50.8863 252.36C49.7929 252.947 48.8463 253.853 48.0463 255.08V268H44.0063V248.8ZM67.9906 248.8H71.9106V251.56C72.8173 250.413 73.924 249.573 75.2306 249.04C76.564 248.48 77.9506 248.2 79.3906 248.2C81.9506 248.2 83.8573 248.88 85.1106 250.24C86.364 251.6 86.9906 253.427 86.9906 255.72V268H82.9506V256.12C82.9506 253 81.4573 251.44 78.4706 251.44C77.1906 251.44 75.9906 251.747 74.8706 252.36C73.7773 252.947 72.8306 253.853 72.0306 255.08V268H67.9906V248.8ZM102.535 268.6C98.9883 268.6 96.2017 267.72 94.175 265.96C92.175 264.173 91.175 261.667 91.175 258.44C91.175 255.293 92.0683 252.8 93.855 250.96C95.6683 249.12 98.2417 248.2 101.575 248.2C103.788 248.2 105.668 248.627 107.215 249.48C108.762 250.307 109.922 251.467 110.695 252.96C111.495 254.427 111.895 256.107 111.895 258V260H95.015C95.1483 261.813 95.9083 263.173 97.295 264.08C98.7083 264.96 100.615 265.4 103.015 265.4C104.242 265.4 105.482 265.293 106.735 265.08C107.988 264.84 109.095 264.533 110.055 264.16V267.4C109.202 267.747 108.068 268.027 106.655 268.24C105.268 268.48 103.895 268.6 102.535 268.6ZM108.095 257.16C108.042 255.347 107.442 253.947 106.295 252.96C105.175 251.947 103.575 251.44 101.495 251.44C99.4683 251.44 97.895 251.96 96.775 253C95.655 254.04 95.0683 255.427 95.015 257.16H108.095ZM116.311 248.8H120.231V252.24C121.031 251.067 122.151 250.2 123.591 249.64C125.058 249.08 126.751 248.8 128.671 248.8V251.96C126.618 251.96 124.858 252.293 123.391 252.96C121.924 253.627 120.911 254.68 120.351 256.12V268H116.311V248.8ZM146.292 248.8H150.412L154.732 263.04L159.012 248.8H162.652L166.932 263.04L171.252 248.8H175.412L169.172 268H165.292L160.852 253.68L156.412 268H152.492L146.292 248.8ZM182.187 245.04C181.52 245.04 180.96 244.813 180.507 244.36C180.053 243.907 179.827 243.347 179.827 242.68C179.827 242.013 180.053 241.453 180.507 241C180.96 240.547 181.52 240.32 182.187 240.32C182.88 240.32 183.453 240.547 183.907 241C184.387 241.453 184.627 242.013 184.627 242.68C184.627 243.347 184.387 243.907 183.907 244.36C183.453 244.813 182.88 245.04 182.187 245.04ZM180.147 248.8H184.267V268H180.147V248.8ZM189.827 248.8H193.747V251.56C194.653 250.413 195.76 249.573 197.067 249.04C198.4 248.48 199.787 248.2 201.227 248.2C203.787 248.2 205.693 248.88 206.947 250.24C208.2 251.6 208.827 253.427 208.827 255.72V268H204.787V256.12C204.787 253 203.293 251.44 200.307 251.44C199.027 251.44 197.827 251.747 196.707 252.36C195.613 252.947 194.667 253.853 193.867 255.08V268H189.827V248.8ZM213.811 248.8H217.731V251.56C218.638 250.413 219.744 249.573 221.051 249.04C222.384 248.48 223.771 248.2 225.211 248.2C227.771 248.2 229.678 248.88 230.931 250.24C232.184 251.6 232.811 253.427 232.811 255.72V268H228.771V256.12C228.771 253 227.278 251.44 224.291 251.44C223.011 251.44 221.811 251.747 220.691 252.36C219.598 252.947 218.651 253.853 217.851 255.08V268H213.811V248.8ZM248.355 268.6C244.809 268.6 242.022 267.72 239.995 265.96C237.995 264.173 236.995 261.667 236.995 258.44C236.995 255.293 237.889 252.8 239.675 250.96C241.489 249.12 244.062 248.2 247.395 248.2C249.609 248.2 251.489 248.627 253.035 249.48C254.582 250.307 255.742 251.467 256.515 252.96C257.315 254.427 257.715 256.107 257.715 258V260H240.835C240.969 261.813 241.729 263.173 243.115 264.08C244.529 264.96 246.435 265.4 248.835 265.4C250.062 265.4 251.302 265.293 252.555 265.08C253.809 264.84 254.915 264.533 255.875 264.16V267.4C255.022 267.747 253.889 268.027 252.475 268.24C251.089 268.48 249.715 268.6 248.355 268.6ZM253.915 257.16C253.862 255.347 253.262 253.947 252.115 252.96C250.995 251.947 249.395 251.44 247.315 251.44C245.289 251.44 243.715 251.96 242.595 253C241.475 254.04 240.889 255.427 240.835 257.16H253.915ZM262.131 248.8H266.051V252.24C266.851 251.067 267.971 250.2 269.411 249.64C270.878 249.08 272.571 248.8 274.491 248.8V251.96C272.438 251.96 270.678 252.293 269.211 252.96C267.745 253.627 266.731 254.68 266.171 256.12V268H262.131V248.8ZM292.113 248.8H296.233L300.553 263.04L304.833 248.8H308.473L312.753 263.04L317.073 248.8H321.233L314.993 268H311.113L306.673 253.68L302.233 268H298.313L292.113 248.8ZM328.007 245.04C327.34 245.04 326.78 244.813 326.327 244.36C325.874 243.907 325.647 243.347 325.647 242.68C325.647 242.013 325.874 241.453 326.327 241C326.78 240.547 327.34 240.32 328.007 240.32C328.7 240.32 329.274 240.547 329.727 241C330.207 241.453 330.447 242.013 330.447 242.68C330.447 243.347 330.207 243.907 329.727 244.36C329.274 244.813 328.7 245.04 328.007 245.04ZM325.967 248.8H330.087V268H325.967V248.8ZM335.647 248.8H339.567V251.56C340.474 250.413 341.58 249.573 342.887 249.04C344.22 248.48 345.607 248.2 347.047 248.2C349.607 248.2 351.514 248.88 352.767 250.24C354.02 251.6 354.647 253.427 354.647 255.72V268H350.607V256.12C350.607 253 349.114 251.44 346.127 251.44C344.847 251.44 343.647 251.747 342.527 252.36C341.434 252.947 340.487 253.853 339.687 255.08V268H335.647V248.8ZM359.631 248.8H363.551V251.56C364.458 250.413 365.565 249.573 366.871 249.04C368.205 248.48 369.591 248.2 371.031 248.2C373.591 248.2 375.498 248.88 376.751 250.24C378.005 251.6 378.631 253.427 378.631 255.72V268H374.591V256.12C374.591 253 373.098 251.44 370.111 251.44C368.831 251.44 367.631 251.747 366.511 252.36C365.418 252.947 364.471 253.853 363.671 255.08V268H359.631V248.8ZM394.176 268.6C390.629 268.6 387.842 267.72 385.816 265.96C383.816 264.173 382.816 261.667 382.816 258.44C382.816 255.293 383.709 252.8 385.496 250.96C387.309 249.12 389.882 248.2 393.216 248.2C395.429 248.2 397.309 248.627 398.856 249.48C400.402 250.307 401.562 251.467 402.336 252.96C403.136 254.427 403.536 256.107 403.536 258V260H386.656C386.789 261.813 387.549 263.173 388.936 264.08C390.349 264.96 392.256 265.4 394.656 265.4C395.882 265.4 397.122 265.293 398.376 265.08C399.629 264.84 400.736 264.533 401.696 264.16V267.4C400.842 267.747 399.709 268.027 398.296 268.24C396.909 268.48 395.536 268.6 394.176 268.6ZM399.736 257.16C399.682 255.347 399.082 253.947 397.936 252.96C396.816 251.947 395.216 251.44 393.136 251.44C391.109 251.44 389.536 251.96 388.416 253C387.296 254.04 386.709 255.427 386.656 257.16H399.736ZM407.952 248.8H411.872V252.24C412.672 251.067 413.792 250.2 415.232 249.64C416.698 249.08 418.392 248.8 420.312 248.8V251.96C418.258 251.96 416.498 252.293 415.032 252.96C413.565 253.627 412.552 254.68 411.992 256.12V268H407.952V248.8ZM0.471875 308.8H4.59188L8.91188 323.04L13.1919 308.8H16.8319L21.1119 323.04L25.4319 308.8H29.5919L23.3519 328H19.4719L15.0319 313.68L10.5919 328H6.67188L0.471875 308.8ZM36.3663 305.04C35.6996 305.04 35.1396 304.813 34.6863 304.36C34.2329 303.907 34.0063 303.347 34.0063 302.68C34.0063 302.013 34.2329 301.453 34.6863 301C35.1396 300.547 35.6996 300.32 36.3663 300.32C37.0596 300.32 37.6329 300.547 38.0863 301C38.5663 301.453 38.8063 302.013 38.8063 302.68C38.8063 303.347 38.5663 303.907 38.0863 304.36C37.6329 304.813 37.0596 305.04 36.3663 305.04ZM34.3263 308.8H38.4463V328H34.3263V308.8ZM44.0063 308.8H47.9263V311.56C48.8329 310.413 49.9396 309.573 51.2463 309.04C52.5796 308.48 53.9663 308.2 55.4063 308.2C57.9663 308.2 59.8729 308.88 61.1263 310.24C62.3796 311.6 63.0063 313.427 63.0063 315.72V328H58.9663V316.12C58.9663 313 57.4729 311.44 54.4863 311.44C53.2063 311.44 52.0063 311.747 50.8863 312.36C49.7929 312.947 48.8463 313.853 48.0463 315.08V328H44.0063V308.8ZM67.9906 308.8H71.9106V311.56C72.8173 310.413 73.924 309.573 75.2306 309.04C76.564 308.48 77.9506 308.2 79.3906 308.2C81.9506 308.2 83.8573 308.88 85.1106 310.24C86.364 311.6 86.9906 313.427 86.9906 315.72V328H82.9506V316.12C82.9506 313 81.4573 311.44 78.4706 311.44C77.1906 311.44 75.9906 311.747 74.8706 312.36C73.7773 312.947 72.8306 313.853 72.0306 315.08V328H67.9906V308.8ZM102.535 328.6C98.9883 328.6 96.2017 327.72 94.175 325.96C92.175 324.173 91.175 321.667 91.175 318.44C91.175 315.293 92.0683 312.8 93.855 310.96C95.6683 309.12 98.2417 308.2 101.575 308.2C103.788 308.2 105.668 308.627 107.215 309.48C108.762 310.307 109.922 311.467 110.695 312.96C111.495 314.427 111.895 316.107 111.895 318V320H95.015C95.1483 321.813 95.9083 323.173 97.295 324.08C98.7083 324.96 100.615 325.4 103.015 325.4C104.242 325.4 105.482 325.293 106.735 325.08C107.988 324.84 109.095 324.533 110.055 324.16V327.4C109.202 327.747 108.068 328.027 106.655 328.24C105.268 328.48 103.895 328.6 102.535 328.6ZM108.095 317.16C108.042 315.347 107.442 313.947 106.295 312.96C105.175 311.947 103.575 311.44 101.495 311.44C99.4683 311.44 97.895 311.96 96.775 313C95.655 314.04 95.0683 315.427 95.015 317.16H108.095ZM116.311 308.8H120.231V312.24C121.031 311.067 122.151 310.2 123.591 309.64C125.058 309.08 126.751 308.8 128.671 308.8V311.96C126.618 311.96 124.858 312.293 123.391 312.96C121.924 313.627 120.911 314.68 120.351 316.12V328H116.311V308.8ZM146.292 308.8H150.412L154.732 323.04L159.012 308.8H162.652L166.932 323.04L171.252 308.8H175.412L169.172 328H165.292L160.852 313.68L156.412 328H152.492L146.292 308.8ZM182.187 305.04C181.52 305.04 180.96 304.813 180.507 304.36C180.053 303.907 179.827 303.347 179.827 302.68C179.827 302.013 180.053 301.453 180.507 301C180.96 300.547 181.52 300.32 182.187 300.32C182.88 300.32 183.453 300.547 183.907 301C184.387 301.453 184.627 302.013 184.627 302.68C184.627 303.347 184.387 303.907 183.907 304.36C183.453 304.813 182.88 305.04 182.187 305.04ZM180.147 308.8H184.267V328H180.147V308.8ZM189.827 308.8H193.747V311.56C194.653 310.413 195.76 309.573 197.067 309.04C198.4 308.48 199.787 308.2 201.227 308.2C203.787 308.2 205.693 308.88 206.947 310.24C208.2 311.6 208.827 313.427 208.827 315.72V328H204.787V316.12C204.787 313 203.293 311.44 200.307 311.44C199.027 311.44 197.827 311.747 196.707 312.36C195.613 312.947 194.667 313.853 193.867 315.08V328H189.827V308.8ZM213.811 308.8H217.731V311.56C218.638 310.413 219.744 309.573 221.051 309.04C222.384 308.48 223.771 308.2 225.211 308.2C227.771 308.2 229.678 308.88 230.931 310.24C232.184 311.6 232.811 313.427 232.811 315.72V328H228.771V316.12C228.771 313 227.278 311.44 224.291 311.44C223.011 311.44 221.811 311.747 220.691 312.36C219.598 312.947 218.651 313.853 217.851 315.08V328H213.811V308.8ZM248.355 328.6C244.809 328.6 242.022 327.72 239.995 325.96C237.995 324.173 236.995 321.667 236.995 318.44C236.995 315.293 237.889 312.8 239.675 310.96C241.489 309.12 244.062 308.2 247.395 308.2C249.609 308.2 251.489 308.627 253.035 309.48C254.582 310.307 255.742 311.467 256.515 312.96C257.315 314.427 257.715 316.107 257.715 318V320H240.835C240.969 321.813 241.729 323.173 243.115 324.08C244.529 324.96 246.435 325.4 248.835 325.4C250.062 325.4 251.302 325.293 252.555 325.08C253.809 324.84 254.915 324.533 255.875 324.16V327.4C255.022 327.747 253.889 328.027 252.475 328.24C251.089 328.48 249.715 328.6 248.355 328.6ZM253.915 317.16C253.862 315.347 253.262 313.947 252.115 312.96C250.995 311.947 249.395 311.44 247.315 311.44C245.289 311.44 243.715 311.96 242.595 313C241.475 314.04 240.889 315.427 240.835 317.16H253.915ZM262.131 308.8H266.051V312.24C266.851 311.067 267.971 310.2 269.411 309.64C270.878 309.08 272.571 308.8 274.491 308.8V311.96C272.438 311.96 270.678 312.293 269.211 312.96C267.745 313.627 266.731 314.68 266.171 316.12V328H262.131V308.8ZM292.113 308.8H296.233L300.553 323.04L304.833 308.8H308.473L312.753 323.04L317.073 308.8H321.233L314.993 328H311.113L306.673 313.68L302.233 328H298.313L292.113 308.8ZM328.007 305.04C327.34 305.04 326.78 304.813 326.327 304.36C325.874 303.907 325.647 303.347 325.647 302.68C325.647 302.013 325.874 301.453 326.327 301C326.78 300.547 327.34 300.32 328.007 300.32C328.7 300.32 329.274 300.547 329.727 301C330.207 301.453 330.447 302.013 330.447 302.68C330.447 303.347 330.207 303.907 329.727 304.36C329.274 304.813 328.7 305.04 328.007 305.04ZM325.967 308.8H330.087V328H325.967V308.8ZM335.647 308.8H339.567V311.56C340.474 310.413 341.58 309.573 342.887 309.04C344.22 308.48 345.607 308.2 347.047 308.2C349.607 308.2 351.514 308.88 352.767 310.24C354.02 311.6 354.647 313.427 354.647 315.72V328H350.607V316.12C350.607 313 349.114 311.44 346.127 311.44C344.847 311.44 343.647 311.747 342.527 312.36C341.434 312.947 340.487 313.853 339.687 315.08V328H335.647V308.8ZM359.631 308.8H363.551V311.56C364.458 310.413 365.565 309.573 366.871 309.04C368.205 308.48 369.591 308.2 371.031 308.2C373.591 308.2 375.498 308.88 376.751 310.24C378.005 311.6 378.631 313.427 378.631 315.72V328H374.591V316.12C374.591 313 373.098 311.44 370.111 311.44C368.831 311.44 367.631 311.747 366.511 312.36C365.418 312.947 364.471 313.853 363.671 315.08V328H359.631V308.8ZM394.176 328.6C390.629 328.6 387.842 327.72 385.816 325.96C383.816 324.173 382.816 321.667 382.816 318.44C382.816 315.293 383.709 312.8 385.496 310.96C387.309 309.12 389.882 308.2 393.216 308.2C395.429 308.2 397.309 308.627 398.856 309.48C400.402 310.307 401.562 311.467 402.336 312.96C403.136 314.427 403.536 316.107 403.536 318V320H386.656C386.789 321.813 387.549 323.173 388.936 324.08C390.349 324.96 392.256 325.4 394.656 325.4C395.882 325.4 397.122 325.293 398.376 325.08C399.629 324.84 400.736 324.533 401.696 324.16V327.4C400.842 327.747 399.709 328.027 398.296 328.24C396.909 328.48 395.536 328.6 394.176 328.6ZM399.736 317.16C399.682 315.347 399.082 313.947 397.936 312.96C396.816 311.947 395.216 311.44 393.136 311.44C391.109 311.44 389.536 311.96 388.416 313C387.296 314.04 386.709 315.427 386.656 317.16H399.736ZM407.952 308.8H411.872V312.24C412.672 311.067 413.792 310.2 415.232 309.64C416.698 309.08 418.392 308.8 420.312 308.8V311.96C418.258 311.96 416.498 312.293 415.032 312.96C413.565 313.627 412.552 314.68 411.992 316.12V328H407.952V308.8ZM0.471875 368.8H4.59188L8.91188 383.04L13.1919 368.8H16.8319L21.1119 383.04L25.4319 368.8H29.5919L23.3519 388H19.4719L15.0319 373.68L10.5919 388H6.67188L0.471875 368.8ZM36.3663 365.04C35.6996 365.04 35.1396 364.813 34.6863 364.36C34.2329 363.907 34.0063 363.347 34.0063 362.68C34.0063 362.013 34.2329 361.453 34.6863 361C35.1396 360.547 35.6996 360.32 36.3663 360.32C37.0596 360.32 37.6329 360.547 38.0863 361C38.5663 361.453 38.8063 362.013 38.8063 362.68C38.8063 363.347 38.5663 363.907 38.0863 364.36C37.6329 364.813 37.0596 365.04 36.3663 365.04ZM34.3263 368.8H38.4463V388H34.3263V368.8ZM44.0063 368.8H47.9263V371.56C48.8329 370.413 49.9396 369.573 51.2463 369.04C52.5796 368.48 53.9663 368.2 55.4063 368.2C57.9663 368.2 59.8729 368.88 61.1263 370.24C62.3796 371.6 63.0063 373.427 63.0063 375.72V388H58.9663V376.12C58.9663 373 57.4729 371.44 54.4863 371.44C53.2063 371.44 52.0063 371.747 50.8863 372.36C49.7929 372.947 48.8463 373.853 48.0463 375.08V388H44.0063V368.8ZM67.9906 368.8H71.9106V371.56C72.8173 370.413 73.924 369.573 75.2306 369.04C76.564 368.48 77.9506 368.2 79.3906 368.2C81.9506 368.2 83.8573 368.88 85.1106 370.24C86.364 371.6 86.9906 373.427 86.9906 375.72V388H82.9506V376.12C82.9506 373 81.4573 371.44 78.4706 371.44C77.1906 371.44 75.9906 371.747 74.8706 372.36C73.7773 372.947 72.8306 373.853 72.0306 375.08V388H67.9906V368.8ZM102.535 388.6C98.9883 388.6 96.2017 387.72 94.175 385.96C92.175 384.173 91.175 381.667 91.175 378.44C91.175 375.293 92.0683 372.8 93.855 370.96C95.6683 369.12 98.2417 368.2 101.575 368.2C103.788 368.2 105.668 368.627 107.215 369.48C108.762 370.307 109.922 371.467 110.695 372.96C111.495 374.427 111.895 376.107 111.895 378V380H95.015C95.1483 381.813 95.9083 383.173 97.295 384.08C98.7083 384.96 100.615 385.4 103.015 385.4C104.242 385.4 105.482 385.293 106.735 385.08C107.988 384.84 109.095 384.533 110.055 384.16V387.4C109.202 387.747 108.068 388.027 106.655 388.24C105.268 388.48 103.895 388.6 102.535 388.6ZM108.095 377.16C108.042 375.347 107.442 373.947 106.295 372.96C105.175 371.947 103.575 371.44 101.495 371.44C99.4683 371.44 97.895 371.96 96.775 373C95.655 374.04 95.0683 375.427 95.015 377.16H108.095ZM116.311 368.8H120.231V372.24C121.031 371.067 122.151 370.2 123.591 369.64C125.058 369.08 126.751 368.8 128.671 368.8V371.96C126.618 371.96 124.858 372.293 123.391 372.96C121.924 373.627 120.911 374.68 120.351 376.12V388H116.311V368.8ZM146.292 368.8H150.412L154.732 383.04L159.012 368.8H162.652L166.932 383.04L171.252 368.8H175.412L169.172 388H165.292L160.852 373.68L156.412 388H152.492L146.292 368.8ZM182.187 365.04C181.52 365.04 180.96 364.813 180.507 364.36C180.053 363.907 179.827 363.347 179.827 362.68C179.827 362.013 180.053 361.453 180.507 361C180.96 360.547 181.52 360.32 182.187 360.32C182.88 360.32 183.453 360.547 183.907 361C184.387 361.453 184.627 362.013 184.627 362.68C184.627 363.347 184.387 363.907 183.907 364.36C183.453 364.813 182.88 365.04 182.187 365.04ZM180.147 368.8H184.267V388H180.147V368.8ZM189.827 368.8H193.747V371.56C194.653 370.413 195.76 369.573 197.067 369.04C198.4 368.48 199.787 368.2 201.227 368.2C203.787 368.2 205.693 368.88 206.947 370.24C208.2 371.6 208.827 373.427 208.827 375.72V388H204.787V376.12C204.787 373 203.293 371.44 200.307 371.44C199.027 371.44 197.827 371.747 196.707 372.36C195.613 372.947 194.667 373.853 193.867 375.08V388H189.827V368.8ZM213.811 368.8H217.731V371.56C218.638 370.413 219.744 369.573 221.051 369.04C222.384 368.48 223.771 368.2 225.211 368.2C227.771 368.2 229.678 368.88 230.931 370.24C232.184 371.6 232.811 373.427 232.811 375.72V388H228.771V376.12C228.771 373 227.278 371.44 224.291 371.44C223.011 371.44 221.811 371.747 220.691 372.36C219.598 372.947 218.651 373.853 217.851 375.08V388H213.811V368.8ZM248.355 388.6C244.809 388.6 242.022 387.72 239.995 385.96C237.995 384.173 236.995 381.667 236.995 378.44C236.995 375.293 237.889 372.8 239.675 370.96C241.489 369.12 244.062 368.2 247.395 368.2C249.609 368.2 251.489 368.627 253.035 369.48C254.582 370.307 255.742 371.467 256.515 372.96C257.315 374.427 257.715 376.107 257.715 378V380H240.835C240.969 381.813 241.729 383.173 243.115 384.08C244.529 384.96 246.435 385.4 248.835 385.4C250.062 385.4 251.302 385.293 252.555 385.08C253.809 384.84 254.915 384.533 255.875 384.16V387.4C255.022 387.747 253.889 388.027 252.475 388.24C251.089 388.48 249.715 388.6 248.355 388.6ZM253.915 377.16C253.862 375.347 253.262 373.947 252.115 372.96C250.995 371.947 249.395 371.44 247.315 371.44C245.289 371.44 243.715 371.96 242.595 373C241.475 374.04 240.889 375.427 240.835 377.16H253.915ZM262.131 368.8H266.051V372.24C266.851 371.067 267.971 370.2 269.411 369.64C270.878 369.08 272.571 368.8 274.491 368.8V371.96C272.438 371.96 270.678 372.293 269.211 372.96C267.745 373.627 266.731 374.68 266.171 376.12V388H262.131V368.8ZM292.113 368.8H296.233L300.553 383.04L304.833 368.8H308.473L312.753 383.04L317.073 368.8H321.233L314.993 388H311.113L306.673 373.68L302.233 388H298.313L292.113 368.8ZM328.007 365.04C327.34 365.04 326.78 364.813 326.327 364.36C325.874 363.907 325.647 363.347 325.647 362.68C325.647 362.013 325.874 361.453 326.327 361C326.78 360.547 327.34 360.32 328.007 360.32C328.7 360.32 329.274 360.547 329.727 361C330.207 361.453 330.447 362.013 330.447 362.68C330.447 363.347 330.207 363.907 329.727 364.36C329.274 364.813 328.7 365.04 328.007 365.04ZM325.967 368.8H330.087V388H325.967V368.8ZM335.647 368.8H339.567V371.56C340.474 370.413 341.58 369.573 342.887 369.04C344.22 368.48 345.607 368.2 347.047 368.2C349.607 368.2 351.514 368.88 352.767 370.24C354.02 371.6 354.647 373.427 354.647 375.72V388H350.607V376.12C350.607 373 349.114 371.44 346.127 371.44C344.847 371.44 343.647 371.747 342.527 372.36C341.434 372.947 340.487 373.853 339.687 375.08V388H335.647V368.8ZM359.631 368.8H363.551V371.56C364.458 370.413 365.565 369.573 366.871 369.04C368.205 368.48 369.591 368.2 371.031 368.2C373.591 368.2 375.498 368.88 376.751 370.24C378.005 371.6 378.631 373.427 378.631 375.72V388H374.591V376.12C374.591 373 373.098 371.44 370.111 371.44C368.831 371.44 367.631 371.747 366.511 372.36C365.418 372.947 364.471 373.853 363.671 375.08V388H359.631V368.8ZM394.176 388.6C390.629 388.6 387.842 387.72 385.816 385.96C383.816 384.173 382.816 381.667 382.816 378.44C382.816 375.293 383.709 372.8 385.496 370.96C387.309 369.12 389.882 368.2 393.216 368.2C395.429 368.2 397.309 368.627 398.856 369.48C400.402 370.307 401.562 371.467 402.336 372.96C403.136 374.427 403.536 376.107 403.536 378V380H386.656C386.789 381.813 387.549 383.173 388.936 384.08C390.349 384.96 392.256 385.4 394.656 385.4C395.882 385.4 397.122 385.293 398.376 385.08C399.629 384.84 400.736 384.533 401.696 384.16V387.4C400.842 387.747 399.709 388.027 398.296 388.24C396.909 388.48 395.536 388.6 394.176 388.6ZM399.736 377.16C399.682 375.347 399.082 373.947 397.936 372.96C396.816 371.947 395.216 371.44 393.136 371.44C391.109 371.44 389.536 371.96 388.416 373C387.296 374.04 386.709 375.427 386.656 377.16H399.736ZM407.952 368.8H411.872V372.24C412.672 371.067 413.792 370.2 415.232 369.64C416.698 369.08 418.392 368.8 420.312 368.8V371.96C418.258 371.96 416.498 372.293 415.032 372.96C413.565 373.627 412.552 374.68 411.992 376.12V388H407.952V368.8ZM0.471875 428.8H4.59188L8.91188 443.04L13.1919 428.8H16.8319L21.1119 443.04L25.4319 428.8H29.5919L23.3519 448H19.4719L15.0319 433.68L10.5919 448H6.67188L0.471875 428.8ZM36.3663 425.04C35.6996 425.04 35.1396 424.813 34.6863 424.36C34.2329 423.907 34.0063 423.347 34.0063 422.68C34.0063 422.013 34.2329 421.453 34.6863 421C35.1396 420.547 35.6996 420.32 36.3663 420.32C37.0596 420.32 37.6329 420.547 38.0863 421C38.5663 421.453 38.8063 422.013 38.8063 422.68C38.8063 423.347 38.5663 423.907 38.0863 424.36C37.6329 424.813 37.0596 425.04 36.3663 425.04ZM34.3263 428.8H38.4463V448H34.3263V428.8ZM44.0063 428.8H47.9263V431.56C48.8329 430.413 49.9396 429.573 51.2463 429.04C52.5796 428.48 53.9663 428.2 55.4063 428.2C57.9663 428.2 59.8729 428.88 61.1263 430.24C62.3796 431.6 63.0063 433.427 63.0063 435.72V448H58.9663V436.12C58.9663 433 57.4729 431.44 54.4863 431.44C53.2063 431.44 52.0063 431.747 50.8863 432.36C49.7929 432.947 48.8463 433.853 48.0463 435.08V448H44.0063V428.8ZM67.9906 428.8H71.9106V431.56C72.8173 430.413 73.924 429.573 75.2306 429.04C76.564 428.48 77.9506 428.2 79.3906 428.2C81.9506 428.2 83.8573 428.88 85.1106 430.24C86.364 431.6 86.9906 433.427 86.9906 435.72V448H82.9506V436.12C82.9506 433 81.4573 431.44 78.4706 431.44C77.1906 431.44 75.9906 431.747 74.8706 432.36C73.7773 432.947 72.8306 433.853 72.0306 435.08V448H67.9906V428.8ZM102.535 448.6C98.9883 448.6 96.2017 447.72 94.175 445.96C92.175 444.173 91.175 441.667 91.175 438.44C91.175 435.293 92.0683 432.8 93.855 430.96C95.6683 429.12 98.2417 428.2 101.575 428.2C103.788 428.2 105.668 428.627 107.215 429.48C108.762 430.307 109.922 431.467 110.695 432.96C111.495 434.427 111.895 436.107 111.895 438V440H95.015C95.1483 441.813 95.9083 443.173 97.295 444.08C98.7083 444.96 100.615 445.4 103.015 445.4C104.242 445.4 105.482 445.293 106.735 445.08C107.988 444.84 109.095 444.533 110.055 444.16V447.4C109.202 447.747 108.068 448.027 106.655 448.24C105.268 448.48 103.895 448.6 102.535 448.6ZM108.095 437.16C108.042 435.347 107.442 433.947 106.295 432.96C105.175 431.947 103.575 431.44 101.495 431.44C99.4683 431.44 97.895 431.96 96.775 433C95.655 434.04 95.0683 435.427 95.015 437.16H108.095ZM116.311 428.8H120.231V432.24C121.031 431.067 122.151 430.2 123.591 429.64C125.058 429.08 126.751 428.8 128.671 428.8V431.96C126.618 431.96 124.858 432.293 123.391 432.96C121.924 433.627 120.911 434.68 120.351 436.12V448H116.311V428.8ZM146.292 428.8H150.412L154.732 443.04L159.012 428.8H162.652L166.932 443.04L171.252 428.8H175.412L169.172 448H165.292L160.852 433.68L156.412 448H152.492L146.292 428.8ZM182.187 425.04C181.52 425.04 180.96 424.813 180.507 424.36C180.053 423.907 179.827 423.347 179.827 422.68C179.827 422.013 180.053 421.453 180.507 421C180.96 420.547 181.52 420.32 182.187 420.32C182.88 420.32 183.453 420.547 183.907 421C184.387 421.453 184.627 422.013 184.627 422.68C184.627 423.347 184.387 423.907 183.907 424.36C183.453 424.813 182.88 425.04 182.187 425.04ZM180.147 428.8H184.267V448H180.147V428.8ZM189.827 428.8H193.747V431.56C194.653 430.413 195.76 429.573 197.067 429.04C198.4 428.48 199.787 428.2 201.227 428.2C203.787 428.2 205.693 428.88 206.947 430.24C208.2 431.6 208.827 433.427 208.827 435.72V448H204.787V436.12C204.787 433 203.293 431.44 200.307 431.44C199.027 431.44 197.827 431.747 196.707 432.36C195.613 432.947 194.667 433.853 193.867 435.08V448H189.827V428.8ZM213.811 428.8H217.731V431.56C218.638 430.413 219.744 429.573 221.051 429.04C222.384 428.48 223.771 428.2 225.211 428.2C227.771 428.2 229.678 428.88 230.931 430.24C232.184 431.6 232.811 433.427 232.811 435.72V448H228.771V436.12C228.771 433 227.278 431.44 224.291 431.44C223.011 431.44 221.811 431.747 220.691 432.36C219.598 432.947 218.651 433.853 217.851 435.08V448H213.811V428.8ZM248.355 448.6C244.809 448.6 242.022 447.72 239.995 445.96C237.995 444.173 236.995 441.667 236.995 438.44C236.995 435.293 237.889 432.8 239.675 430.96C241.489 429.12 244.062 428.2 247.395 428.2C249.609 428.2 251.489 428.627 253.035 429.48C254.582 430.307 255.742 431.467 256.515 432.96C257.315 434.427 257.715 436.107 257.715 438V440H240.835C240.969 441.813 241.729 443.173 243.115 444.08C244.529 444.96 246.435 445.4 248.835 445.4C250.062 445.4 251.302 445.293 252.555 445.08C253.809 444.84 254.915 444.533 255.875 444.16V447.4C255.022 447.747 253.889 448.027 252.475 448.24C251.089 448.48 249.715 448.6 248.355 448.6ZM253.915 437.16C253.862 435.347 253.262 433.947 252.115 432.96C250.995 431.947 249.395 431.44 247.315 431.44C245.289 431.44 243.715 431.96 242.595 433C241.475 434.04 240.889 435.427 240.835 437.16H253.915ZM262.131 428.8H266.051V432.24C266.851 431.067 267.971 430.2 269.411 429.64C270.878 429.08 272.571 428.8 274.491 428.8V431.96C272.438 431.96 270.678 432.293 269.211 432.96C267.745 433.627 266.731 434.68 266.171 436.12V448H262.131V428.8ZM292.113 428.8H296.233L300.553 443.04L304.833 428.8H308.473L312.753 443.04L317.073 428.8H321.233L314.993 448H311.113L306.673 433.68L302.233 448H298.313L292.113 428.8ZM328.007 425.04C327.34 425.04 326.78 424.813 326.327 424.36C325.874 423.907 325.647 423.347 325.647 422.68C325.647 422.013 325.874 421.453 326.327 421C326.78 420.547 327.34 420.32 328.007 420.32C328.7 420.32 329.274 420.547 329.727 421C330.207 421.453 330.447 422.013 330.447 422.68C330.447 423.347 330.207 423.907 329.727 424.36C329.274 424.813 328.7 425.04 328.007 425.04ZM325.967 428.8H330.087V448H325.967V428.8ZM335.647 428.8H339.567V431.56C340.474 430.413 341.58 429.573 342.887 429.04C344.22 428.48 345.607 428.2 347.047 428.2C349.607 428.2 351.514 428.88 352.767 430.24C354.02 431.6 354.647 433.427 354.647 435.72V448H350.607V436.12C350.607 433 349.114 431.44 346.127 431.44C344.847 431.44 343.647 431.747 342.527 432.36C341.434 432.947 340.487 433.853 339.687 435.08V448H335.647V428.8ZM359.631 428.8H363.551V431.56C364.458 430.413 365.565 429.573 366.871 429.04C368.205 428.48 369.591 428.2 371.031 428.2C373.591 428.2 375.498 428.88 376.751 430.24C378.005 431.6 378.631 433.427 378.631 435.72V448H374.591V436.12C374.591 433 373.098 431.44 370.111 431.44C368.831 431.44 367.631 431.747 366.511 432.36C365.418 432.947 364.471 433.853 363.671 435.08V448H359.631V428.8ZM394.176 448.6C390.629 448.6 387.842 447.72 385.816 445.96C383.816 444.173 382.816 441.667 382.816 438.44C382.816 435.293 383.709 432.8 385.496 430.96C387.309 429.12 389.882 428.2 393.216 428.2C395.429 428.2 397.309 428.627 398.856 429.48C400.402 430.307 401.562 431.467 402.336 432.96C403.136 434.427 403.536 436.107 403.536 438V440H386.656C386.789 441.813 387.549 443.173 388.936 444.08C390.349 444.96 392.256 445.4 394.656 445.4C395.882 445.4 397.122 445.293 398.376 445.08C399.629 444.84 400.736 444.533 401.696 444.16V447.4C400.842 447.747 399.709 448.027 398.296 448.24C396.909 448.48 395.536 448.6 394.176 448.6ZM399.736 437.16C399.682 435.347 399.082 433.947 397.936 432.96C396.816 431.947 395.216 431.44 393.136 431.44C391.109 431.44 389.536 431.96 388.416 433C387.296 434.04 386.709 435.427 386.656 437.16H399.736ZM407.952 428.8H411.872V432.24C412.672 431.067 413.792 430.2 415.232 429.64C416.698 429.08 418.392 428.8 420.312 428.8V431.96C418.258 431.96 416.498 432.293 415.032 432.96C413.565 433.627 412.552 434.68 411.992 436.12V448H407.952V428.8Z" fill="#663100"/>
</svg>
